<svg aria-hidden="true" style="position: absolute; width: 0; height: 0; overflow: hidden;" version="1.1" xmlns="http://www.w3.org/2000/svg" xmlns:xlink="http://www.w3.org/1999/xlink">
<defs>
<symbol id="icon-align-left" viewBox="0 0 32 32">
<path d="M22.629 14.514h-18.629c-0.686 0-1.143-0.457-1.143-1.143s0.457-1.143 1.143-1.143h18.629c0.686 0 1.143 0.457 1.143 1.143s-0.457 1.143-1.143 1.143z"></path>
<path d="M28 9.143h-24c-0.686 0-1.143-0.457-1.143-1.143s0.457-1.143 1.143-1.143h24c0.686 0 1.143 0.457 1.143 1.143s-0.457 1.143-1.143 1.143z"></path>
<path d="M28 19.771h-24c-0.686 0-1.143-0.457-1.143-1.143s0.457-1.143 1.143-1.143h24c0.686 0 1.143 0.457 1.143 1.143s-0.457 1.143-1.143 1.143z"></path>
<path d="M22.629 25.143h-18.629c-0.686 0-1.143-0.457-1.143-1.143s0.457-1.143 1.143-1.143h18.629c0.686 0 1.143 0.457 1.143 1.143s-0.457 1.143-1.143 1.143z"></path>
</symbol>
<symbol id="icon-arrow_down" viewBox="0 0 56 32">
<path fill="#4f2ee8" style="fill: var(--color1, #4f2ee8)" d="M25.395 21.134c0.341 0.344 0.746 0.616 1.193 0.803s0.926 0.282 1.41 0.282 0.963-0.096 1.41-0.282c0.447-0.186 0.852-0.459 1.193-0.803l16.794-16.83c0.341-0.344 0.746-0.616 1.193-0.803s0.926-0.282 1.41-0.282c0.484 0 0.963 0.096 1.41 0.282s0.852 0.459 1.193 0.803c0.683 0.687 1.066 1.616 1.066 2.585s-0.383 1.898-1.066 2.585l-16.83 16.83c-2.063 2.060-4.858 3.217-7.773 3.217s-5.711-1.157-7.773-3.217l-16.83-16.83c-0.677-0.683-1.059-1.605-1.063-2.567-0.003-0.483 0.090-0.961 0.272-1.408s0.451-0.853 0.791-1.196c0.341-0.344 0.746-0.616 1.193-0.803s0.926-0.282 1.41-0.282 0.963 0.096 1.41 0.282c0.447 0.186 0.852 0.459 1.193 0.803l16.793 16.83z"></path>
</symbol>
<symbol id="icon-arrow-right" viewBox="0 0 43 32">
<path fill="none" stroke="#eac645" style="stroke: var(--color2, #eac645)" stroke-linejoin="round" stroke-linecap="round" stroke-miterlimit="4" stroke-width="5.3333" d="M3.556 16h35.555M39.111 16l-13.333-13.333M39.111 16l-13.333 13.333"></path>
</symbol>
<symbol id="icon-arrow-up" viewBox="0 0 55 32">
<path fill="#fff" style="fill: var(--color3, #fff)" d="M1.091 25.309l24.436-24.509c0.291-0.291 0.606-0.496 0.945-0.617 0.339-0.122 0.703-0.183 1.091-0.183s0.752 0.061 1.091 0.183c0.339 0.12 0.655 0.326 0.945 0.617l24.509 24.509c0.679 0.679 1.018 1.527 1.018 2.545s-0.364 1.891-1.091 2.618c-0.727 0.727-1.576 1.091-2.545 1.091s-1.818-0.364-2.545-1.091l-21.382-21.382-21.382 21.382c-0.679 0.679-1.515 1.018-2.508 1.018-0.995 0-1.856-0.364-2.583-1.091s-1.091-1.576-1.091-2.545c0-0.97 0.364-1.818 1.091-2.545z"></path>
</symbol>
<symbol id="icon-cart" viewBox="0 0 25 32">
<path d="M22.815 8.593h-4.444v-1.481c0-1.572-0.624-3.079-1.736-4.19s-2.619-1.736-4.19-1.736c-1.572 0-3.079 0.624-4.19 1.736s-1.736 2.619-1.736 4.19v1.481h-4.444c-0.393 0-0.77 0.156-1.048 0.434s-0.434 0.655-0.434 1.048v16.296c0 1.179 0.468 2.309 1.302 3.143s1.964 1.302 3.143 1.302h14.815c1.179 0 2.309-0.468 3.143-1.302s1.302-1.964 1.302-3.143v-16.296c0-0.393-0.156-0.77-0.434-1.048s-0.655-0.434-1.048-0.434zM9.481 7.111c0-0.786 0.312-1.539 0.868-2.095s1.309-0.868 2.095-0.868c0.786 0 1.539 0.312 2.095 0.868s0.868 1.309 0.868 2.095v1.481h-5.926v-1.481zM21.333 26.37c0 0.393-0.156 0.77-0.434 1.047s-0.655 0.434-1.047 0.434h-14.815c-0.393 0-0.77-0.156-1.048-0.434s-0.434-0.655-0.434-1.047v-14.815h2.963v1.481c0 0.393 0.156 0.77 0.434 1.048s0.655 0.434 1.048 0.434c0.393 0 0.77-0.156 1.048-0.434s0.434-0.655 0.434-1.048v-1.481h5.926v1.481c0 0.393 0.156 0.77 0.434 1.048s0.655 0.434 1.048 0.434c0.393 0 0.77-0.156 1.047-0.434s0.434-0.655 0.434-1.048v-1.481h2.963v14.815z"></path>
</symbol>
<symbol id="icon-lock" viewBox="0 0 32 32">
<path d="M21.6 29.143h-11.2c-2.4 0-3.657 0-4.686-0.571-1.029-0.457-1.714-1.257-2.286-2.286-0.571-1.143-0.571-2.286-0.571-4.686v-0.571c0-2.4 0-3.657 0.571-4.686 0.457-1.029 1.257-1.714 2.286-2.286 0.686-0.343 1.486-0.457 2.514-0.571v-2.857c0-4.343 3.543-7.771 7.771-7.771 4.343 0 7.771 3.543 7.771 7.771v2.857c1.029 0 1.829 0.229 2.514 0.571 1.029 0.457 1.714 1.257 2.286 2.286 0.571 1.143 0.571 2.286 0.571 4.686v0.571c0 2.4 0 3.657-0.571 4.686-0.457 0.914-1.257 1.714-2.286 2.286s-2.286 0.571-4.686 0.571zM10.4 15.771c-1.943 0-3.086 0-3.657 0.343-0.571 0.229-1.029 0.686-1.257 1.257-0.343 0.571-0.343 1.714-0.343 3.657v0.571c0 1.943 0 3.086 0.343 3.657 0.229 0.571 0.686 1.029 1.257 1.257 0.571 0.343 1.714 0.343 3.657 0.343h11.2c1.943 0 3.086 0 3.657-0.343 0.571-0.229 1.029-0.686 1.257-1.257 0.343-0.571 0.343-1.714 0.343-3.657v-0.571c0-1.943 0-3.086-0.343-3.657-0.229-0.571-0.686-1.029-1.257-1.257-0.571-0.343-1.714-0.343-3.657-0.343h-11.2zM10.514 13.486h11.086v-2.857c0-3.086-2.514-5.486-5.486-5.486s-5.6 2.514-5.6 5.486v2.857z"></path>
</symbol>
<symbol id="icon-logo" viewBox="0 0 32 32">
<path fill="#f6f6f6" style="fill: var(--color4, #f6f6f6)" d="M0 0l16.343 16.171 15.657 15.829v-32h-32z"></path>
<path fill="#f6f6f6" style="fill: var(--color4, #f6f6f6)" d="M4.457 4.229l11.943 11.829 11.257 11.486h-23.2v-23.314z"></path>
<path fill="#4f2ee8" style="fill: var(--color1, #4f2ee8)" d="M27.733 27.618l-11.943-11.829-11.257-11.486h23.2v23.314z"></path>
<path fill="#4f2ee8" style="fill: var(--color1, #4f2ee8)" d="M9.257 9.029l13.6 13.6h-13.6v-13.6z"></path>
<path fill="#f6f6f6" style="fill: var(--color4, #f6f6f6)" d="M9.257 9.029l13.6 13.6v-13.6h-13.6z"></path>
</symbol>
<symbol id="icon-mail" viewBox="0 0 32 32">
<path d="M22.971 27.771h-13.943c-2.4 0-3.657 0-4.686-0.571-1.029-0.457-1.714-1.257-2.286-2.286-0.571-1.143-0.571-2.286-0.571-4.686v-8.571c0-0.8 0-1.6 0-2.171 0-0.229 0-0.457 0-0.571 0.114-0.8 0.229-1.371 0.457-1.943 0.457-1.029 1.257-1.714 2.286-2.286 1.143-0.571 2.286-0.571 4.686-0.571h13.829c2.4 0 3.657 0 4.686 0.571 1.029 0.457 1.714 1.257 2.286 2.286 0.343 0.571 0.457 1.143 0.457 1.943 0.114 0.229 0.114 0.457 0 0.571 0 0.571 0 1.257 0 2.171v8.571c0 2.4 0 3.657-0.571 4.686-0.457 1.029-1.257 1.714-2.286 2.286-0.8 0.571-1.943 0.571-4.343 0.571zM4.457 24.457c0.229 0.343 0.571 0.571 0.914 0.686 0.571 0.343 1.714 0.343 3.657 0.343h13.829c1.943 0 3.086 0 3.657-0.343 0.343-0.229 0.686-0.457 0.914-0.686l-7.771-7.086-0.571 0.457c-0.914 0.686-1.486 1.029-2.171 1.257-0.571 0.114-1.257 0.114-1.829 0-0.686-0.114-1.257-0.571-2.171-1.257l-0.571-0.457-7.886 7.086zM21.6 16.114l6.514 5.943c0-0.457 0-1.029 0-1.714v-8.571c0-0.114 0-0.114 0-0.229l-6.514 4.571zM3.771 11.543c0 0.114 0 0.114 0 0.229v8.571c0 0.686 0 1.257 0 1.714l6.514-5.943-6.514-4.571zM12.8 15.086l1.371 0.914c0.686 0.457 1.143 0.8 1.371 0.914s0.457 0.114 0.686 0c0.229-0.114 0.686-0.343 1.371-0.914l1.371-0.914c0 0 0 0 0 0l8.914-6.286c0-0.343-0.114-0.571-0.229-0.8-0.229-0.571-0.686-1.029-1.257-1.257-0.571-0.343-1.714-0.343-3.657-0.343h-13.714c-1.943 0-3.086 0-3.657 0.343s-1.029 0.8-1.257 1.257c-0.114 0.229-0.114 0.457-0.229 0.8l8.914 6.286c0 0 0 0 0 0z"></path>
</symbol>
<symbol id="icon-open-book" viewBox="0 0 35 32">
<path fill="#4f2ee8" style="fill: var(--color1, #4f2ee8)" d="M34.352 7.713c-0.752-0.394-1.536-0.722-2.352-1.001v19.742c-1.824-0.673-3.696-1.017-5.6-1.017-3.040 0-6.048 0.886-8.8 2.593v-19.856c-2.592-1.526-5.584-2.429-8.8-2.429-2.864 0-5.568 0.722-7.952 1.969-0.528 0.263-0.848 0.837-0.848 1.444v19.824c0 0.952 0.752 1.625 1.6 1.625 0.256 0 0.512-0.066 0.768-0.197 1.936-1.034 4.112-1.69 6.432-1.69 3.312 0 6.368 1.346 8.8 3.282 2.432-1.936 5.488-3.282 8.8-3.282 2.32 0 4.496 0.656 6.432 1.707 0.256 0.131 0.512 0.197 0.768 0.197 0.832 0 1.6-0.673 1.6-1.625v-19.84c0-0.607-0.32-1.182-0.848-1.444zM14.4 26.453c-1.824-0.673-3.696-1.017-5.6-1.017s-3.776 0.345-5.6 1.017v-16.263c1.776-0.771 3.648-1.165 5.6-1.165 1.92 0 3.824 0.41 5.6 1.182v16.246zM28.8 0l-8 8.205v15.59l8-7.385v-16.41z"></path>
</symbol>
<symbol id="icon-trash-bin" viewBox="0 0 32 32">
<path fill="#4f2ee8" style="fill: var(--color1, #4f2ee8)" d="M32 16c0 8.837-7.163 16-16 16s-16-7.163-16-16c0-8.837 7.163-16 16-16s16 7.163 16 16z"></path>
<path fill="none" stroke="#fff" style="stroke: var(--color3, #fff)" stroke-linejoin="round" stroke-linecap="round" stroke-miterlimit="4" stroke-width="1.6842" d="M13.684 9.053h4.632M9.053 11.368h13.895M21.404 11.368l-0.541 8.12c-0.081 1.218-0.122 1.827-0.385 2.289-0.232 0.407-0.581 0.733-1.002 0.938-0.478 0.232-1.089 0.232-2.31 0.232h-2.33c-1.221 0-1.832 0-2.31-0.232-0.421-0.204-0.771-0.531-1.002-0.938-0.263-0.462-0.304-1.071-0.385-2.289l-0.541-8.12M14.456 14.842v3.86M17.544 14.842v3.86"></path>
</symbol>
<symbol id="icon-trident" viewBox="0 0 20 32">
<path fill="#fff" style="fill: var(--color1, #fff)" d="M9.005 30.888c-1.738-1.262-2.991-3.156-3.414-5.351h-5.591v-23.117c2.991 1.443 5.153 4.599 5.388 7.876l0.846 6.493-0.407-0.045c-0.893 0-1.676 0.812-1.676 1.608 0 0.752 0.595 1.383 1.378 1.548l1.018 0.226c1.676-3.051 2.631-6.042 2.631-8.973 0-2.645-0.36-5.291-0.423-7.996 0-1.202 0.486-2.3 1.253-3.156 0.783 0.857 1.253 1.954 1.253 3.156 0 2.705-0.423 5.351-0.423 7.996 0 2.931 0.955 5.922 2.631 8.973l1.018-0.226c0.783-0.165 1.378-0.812 1.378-1.548 0-0.812-0.783-1.608-1.676-1.608l-0.423 0.060 0.846-6.493c0.423-3.277 2.396-6.448 5.388-7.876v23.117h-5.576c-0.423 2.179-1.613 4.148-3.414 5.351-0.423 0.286-0.783 0.631-1.018 1.097-0.219-0.466-0.579-0.812-0.987-1.112zM2.647 17.556c0.235-0.857 0.893-1.608 1.738-2.074l-0.658-5.351c-0.235-1.668-0.955-3.156-2.036-4.374v11.784h0.955v0.015zM5.466 23.929c0-0.812 0.125-1.548 0.298-2.3l-0.783-0.18c-1.143-0.346-2.036-1.203-2.334-2.3h-0.955v4.78h3.774zM9.178 23.929c0-0.977-0.783-1.834-1.801-1.954-0.172 0.631-0.298 1.263-0.298 1.954h2.099zM9.178 25.552h-1.864c0.298 1.263 0.955 2.42 1.864 3.397v-3.397zM11.809 20.547c-0.72-1.262-1.378-2.585-1.801-3.968-0.423 1.383-1.081 2.706-1.801 3.968 0.72 0.165 1.316 0.631 1.801 1.157 0.486-0.526 1.081-0.992 1.801-1.157zM12.952 23.929c0-0.691-0.125-1.323-0.297-1.954-1.018 0.12-1.801 0.977-1.801 1.954h2.099zM12.717 25.552h-1.864v3.397c0.908-0.992 1.566-2.134 1.864-3.397zM18.34 23.929v-4.78h-0.955c-0.298 1.097-1.206 1.954-2.334 2.3l-0.783 0.18c0.172 0.752 0.298 1.488 0.298 2.3h3.774zM18.34 17.556v-11.799c-1.081 1.202-1.864 2.706-2.036 4.374l-0.658 5.351c0.846 0.466 1.504 1.203 1.739 2.074h0.955z"></path>
</symbol>
<symbol id="icon-x-close" viewBox="0 0 32 32">
<path d="M24 25.714c-0.457 0-0.914-0.114-1.257-0.457l-6.743-6.857-6.743 6.743c-0.686 0.686-1.714 0.686-2.4 0s-0.686-1.714 0-2.4l6.743-6.743-6.857-6.743c-0.686-0.686-0.686-1.714 0-2.4s1.714-0.686 2.4 0l6.743 6.743 6.743-6.743c0.686-0.686 1.714-0.686 2.4 0s0.686 1.714 0 2.4l-6.629 6.743 6.743 6.743c0.686 0.686 0.686 1.714 0 2.4-0.229 0.457-0.686 0.571-1.143 0.571z"></path>
</symbol>
</defs>
</svg>
