<svg width="22" height="22" viewBox="0 0 22 22" fill="none" xmlns="http://www.w3.org/2000/svg">
<path d="M10.3488 12.2835C10.434 12.3694 10.5354 12.4376 10.6471 12.4841C10.7588 12.5306 10.8786 12.5546 10.9996 12.5546C11.1206 12.5546 11.2404 12.5306 11.3521 12.4841C11.4638 12.4376 11.5652 12.3694 11.6504 12.2835L15.8488 8.07596C15.934 7.99004 16.0354 7.92184 16.1471 7.87531C16.2588 7.82877 16.3786 7.80481 16.4996 7.80481C16.6206 7.80481 16.7404 7.82877 16.8521 7.87531C16.9638 7.92184 17.0652 7.99004 17.1504 8.07596C17.3212 8.2477 17.417 8.48004 17.417 8.72221C17.417 8.96438 17.3212 9.19671 17.1504 9.36846L12.9429 13.576C12.4273 14.0909 11.7283 14.3802 10.9996 14.3802C10.2708 14.3802 9.57188 14.0909 9.05625 13.576L4.84875 9.36846C4.6794 9.19772 4.58393 8.96727 4.58292 8.72679C4.58222 8.60615 4.60534 8.48656 4.65096 8.37487C4.69658 8.26319 4.76379 8.16161 4.84875 8.07596C4.93397 7.99004 5.03535 7.92184 5.14705 7.87531C5.25876 7.82877 5.37857 7.80481 5.49958 7.80481C5.62059 7.80481 5.74041 7.82877 5.85211 7.87531C5.96382 7.92184 6.0652 7.99004 6.15042 8.07596L10.3488 12.2835Z" fill="#4F2EE8"/>
</svg>
